<?xml version="1.0" encoding="iso-8859-1"?>
<!-- Generator: Adobe Illustrator 16.0.0, SVG Export Plug-In . SVG Version: 6.00 Build 0)  -->
<!DOCTYPE svg PUBLIC "-//W3C//DTD SVG 1.1//EN" "http://www.w3.org/Graphics/SVG/1.1/DTD/svg11.dtd">
<svg version="1.1" id="Capa_1" xmlns="http://www.w3.org/2000/svg" xmlns:xlink="http://www.w3.org/1999/xlink" x="0px" y="0px"
	 width="31.398px" height="31.398px" viewBox="0 0 31.398 31.398" style="enable-background:new 0 0 31.398 31.398;"
	 xml:space="preserve">
<g>
	<g>
		<path d="M21.715,0c1.188,2.277,1.869,4.86,1.869,7.606c0,3.543-1.129,6.816-3.031,9.503c-0.019,0.984,0.018,2.123,0.02,2.139
			l0.038,0.234c0.166,0.006,0.297,0.033,0.411,0.082l0.346,0.148l0.036,0.414c0.002,0.287-0.169,0.488-0.452,0.662
			c-0.002,0.232-0.07,0.363-0.143,0.453l-0.174,0.221l-0.459,0.016l-0.168-0.086c-0.012-0.002-0.053-0.012-0.1-0.025
			c0.134,0.721-0.085,1.334-0.229,1.637c0.035,0.688-0.314,1.631-1.496,1.877c-0.279,0.059-0.738,0.082-1.582,0.082
			c-0.375,0-0.79-0.004-1.223-0.01c-0.466-0.004-0.952-0.01-1.428-0.01c-0.901,0-2.166,0.016-2.732,0.17
			c-0.85,0.229-1.419,0.615-1.835,0.896c-0.248,0.168-0.444,0.301-0.651,0.369C8.489,26.461,8.258,26.5,8.031,26.5
			c-0.255,0-0.499-0.049-0.746-0.152c-0.206-0.086-0.359-0.25-0.432-0.463c-0.025-0.076-0.039-0.156-0.044-0.236
			c-0.457-0.078-0.593-0.408-0.626-0.518c-0.093-0.312,0-0.719,0.153-1.094c-2.199-0.104-4.286-0.625-6.178-1.508
			c2.749,5.268,8.253,8.869,14.606,8.869c9.099,0,16.476-7.375,16.476-16.476C31.241,8.31,27.338,2.623,21.715,0z"/>
		<path d="M10.409,14.952c-0.56,3.063,1.49,3.915,2.743,3.675c-0.133,0.586,0.025,2.371-0.067,2.764
			c-0.094,0.393-0.374,1.066-0.732,1.205c-1.252,0.479-2.822,0.17-3.414,0.182c-0.591,0.012-1.406,0.457-1.726,0.857
			c-0.32,0.398-0.56,1.064-0.479,1.332c0.079,0.266,0.852,0.025,0.852,0.025s-0.398,0.691-0.079,0.826
			c0.319,0.133,0.646,0.15,1.046,0.016c0.4-0.133,1.111-0.895,2.519-1.275c1.408-0.379,6.02-0.035,6.997-0.24
			c1.237-0.258,1.022-1.43,1.022-1.43s0.746-1.172-0.187-2.344c0.187-0.32,0.319-1.277,0.319-1.277s0.152,0.822,0.213,1.145
			c0.062,0.324,0.681,0.383,0.852,0.48c0.172,0.096,0.041-0.428,0.041-0.428s0.653-0.293,0.465-0.373c-0.186-0.08-0.664,0-0.664,0
			l-0.134-0.826c0,0-0.053-1.678,0-2.758c0.72-0.757,0.541-1.928-0.08-2.382c0.399-0.266,1.146-0.693,1.599-2.35
			c0.453-1.657,0.985-4.229,0.826-4.655c-0.16-0.425-2.637,1.519-3.437,3.516c-0.134-0.373,0.239-2.396-0.612-2.508
			c-0.188-0.139-0.8-0.794-1.863-0.289c-1.064,0.506-0.506,2.158-1.357,3.037c-4.469-4.26-9.828-3.916-10.308-3.462
			C4.459,7.704,6.042,13.354,10.409,14.952z"/>
	</g>
</g>
<g>
</g>
<g>
</g>
<g>
</g>
<g>
</g>
<g>
</g>
<g>
</g>
<g>
</g>
<g>
</g>
<g>
</g>
<g>
</g>
<g>
</g>
<g>
</g>
<g>
</g>
<g>
</g>
<g>
</g>
</svg>
